Coordinates
version=1
nRows=24
nColumns=24
inDegrees=yes

Units are S.I. units (second, meters, Newtons, ...)
Angles are in degrees.

endheader
time	pelvis_tilt	pelvis_list	pelvis_rotation	pelvis_tx	pelvis_ty	pelvis_tz	hip_flexion_r	hip_adduction_r	hip_rotation_r	knee_angle_r	ankle_angle_r	subtalar_angle_r	mtp_angle_r	hip_flexion_l	hip_adduction_l	hip_rotation_l	knee_angle_l	ankle_angle_l	subtalar_angle_l	mtp_angle_l	lumbar_extension	lumbar_bending	lumbar_rotation
      1.53766667	     -4.31571018	      1.08313443	     -4.36154236	      0.52821101	      1.07507040	      0.29868310	     23.30732686	     -4.10118707	     -6.44840207	    -63.74565043	      5.33741750	     -2.78243173	      5.83910098	     10.12464013	      3.19715690	      1.04310344	    -13.41100403	     10.65904960	      4.12727948	      0.12852999	     -3.01109660	     -0.56428194	     -1.09572995
      1.54183333	     -4.31688634	      1.03426641	     -4.22406384	      0.53308868	      1.07546926	      0.29832405	     23.70580593	     -4.03252092	     -6.63904706	    -63.07409114	      5.62220891	     -2.64479198	      5.86913800	      9.65444794	      3.18747407	      1.14291357	    -13.01971842	     10.70252346	      4.20407183	      0.14671147	     -3.01068413	     -0.50380795	     -1.22353360
      1.54600000	     -4.32766714	      0.99410356	     -4.08968838	      0.53795271	      1.07578971	      0.29797518	     24.11163035	     -3.97362310	     -6.82429649	    -62.38491347	      5.89928491	     -2.51694696	      5.89984376	      9.19855752	      3.18491049	      1.25026480	    -12.63278922	     10.75497931	      4.26345502	      0.16809976	     -2.99900149	     -0.44676508	     -1.37378345
      1.55016667	     -4.36342832	      0.96710937	     -3.96821788	      0.54281706	      1.07601413	      0.29766842	     24.54331090	     -3.91921949	     -6.98906836	    -61.68106480	      6.15596900	     -2.47000552	      5.91493836	      8.77497199	      3.18828649	      1.32834954	    -12.25511468	     10.80238554	      4.36599076	      0.17942185	     -2.95970298	     -0.39775247	     -1.44180471
      1.55433333	     -4.34897107	      0.92145247	     -3.83833733	      0.54765375	      1.07630355	      0.29733949	     24.89984711	     -3.85478535	     -7.16362852	    -60.92954493	      6.40694720	     -2.35529197	      5.94378634	      8.29813644	      3.17924980	      1.45639058	    -11.88156832	     10.87051679	      4.38208090	      0.20795665	     -2.98134343	     -0.34211445	     -1.64483259
      1.55850000	     -4.39116934	      0.89134462	     -3.72288211	      0.55249013	      1.07643146	      0.29706336	     25.32026791	     -3.79170437	     -7.31192319	    -60.17021702	      6.65087643	     -2.34920036	      5.95416606	      7.89689633	      3.17310398	      1.52615570	    -11.53414084	     10.92340291	      4.47634337	      0.21978140	     -2.93434273	     -0.30428183	     -1.69254805
      1.56266667	     -4.41119542	      0.86795230	     -3.61498323	      0.55730691	      1.07655154	      0.29681054	     25.71077740	     -3.73520858	     -7.45046514	    -59.39040990	      6.88085681	     -2.34145899	      5.96179207	      7.47268813	      3.17424212	      1.60162865	    -11.18734330	     11.00119714	      4.56079978	      0.23125982	     -2.91409431	     -0.27050221	     -1.75976296
      1.56683333	     -4.41480455	      0.83750306	     -3.49833310	      0.56209657	      1.07666609	      0.29655503	     26.06745355	     -3.67452109	     -7.59085083	    -58.57372725	      7.09193740	     -2.32358293	      5.97317203	      7.03319823	      3.17181385	      1.73990689	    -10.84547871	     11.06735332	      4.54151750	      0.26527039	     -2.92577112	     -0.23526485	     -1.96564250
      1.57100000	     -4.46033909	      0.82304423	     -3.40261125	      0.56690272	      1.07664238	      0.29635037	     26.47227880	     -3.61798335	     -7.70438101	    -57.75509115	      7.30875887	     -2.37893190	      5.97559166	      6.65041455	      3.17436529	      1.79619292	    -10.52677686	     11.14680101	      4.63012001	      0.27667480	     -2.87291614	     -0.21892465	     -1.99197651
      1.57516667	     -4.49405545	      0.79124141	     -3.29752716	      0.57168124	      1.07661745	      0.29614288	     26.84471097	     -3.54327585	     -7.81995596	    -56.89377862	      7.49726915	     -2.45318272	      5.97423840	      6.26660957	      3.15952140	      1.88007382	    -10.23397374	     11.23311944	      4.68011197	      0.29406866	     -2.84574918	     -0.18904670	     -2.06383115
      1.57933333	     -4.53100022	      0.78978370	     -3.21279088	      0.57646588	      1.07652504	      0.29597772	     27.22686582	     -3.49472133	     -7.90916393	    -56.03705058	      7.68235402	     -2.55219070	      5.97104751	      5.87913501	      3.17344997	      1.94739465	     -9.92236603	     11.33146043	      4.75246731	      0.30693312	     -2.80934287	     -0.18237795	     -2.11593228
      1.58350000	     -4.55431179	      0.76791208	     -3.11818892	      0.58121968	      1.07643239	      0.29581791	     27.57345928	     -3.42232221	     -7.99859183	    -55.13434759	      7.80206184	     -2.71764167	      5.95358802	      5.48751401	      3.16672800	      2.05473154	     -9.63520312	     11.42622033	      4.75137876	      0.33709549	     -2.79413838	     -0.15958891	     -2.23963366
      1.58766667	     -4.60732730	      0.78462236	     -3.03985284	      0.58597521	      1.07620396	      0.29569601	     27.96326175	     -3.38439577	     -8.06158398	    -54.25176196	      7.99616016	     -2.84766468	      5.94616746	      5.13420820	      3.19496780	      2.11396540	     -9.35476254	     11.52356570	      4.82419021	      0.34969776	     -2.74800884	     -0.18340046	     -2.27003952
      1.59183333	     -4.64396851	      0.77357682	     -2.95193761	      0.59071200	      1.07600970	      0.29558501	     28.30756964	     -3.31175398	     -8.12161140	    -53.31162222	      8.11205260	     -3.06878299	      5.92515648	      4.77380057	      3.19298186	      2.20135076	     -9.10218153	     11.62012394	      4.84896311	      0.37014315	     -2.72278809	     -0.17930699	     -2.33108201
      1.59600000	     -4.67773737	      0.79504649	     -2.87904677	      0.59544338	      1.07575070	      0.29549712	     28.65689264	     -3.27072332	     -8.16067674	    -52.38158736	      8.20450148	     -3.30780506	      5.88867084	      4.40247147	      3.22636878	      2.29502330	     -8.82822861	     11.72521335	      4.85494236	      0.39983929	     -2.69721895	     -0.20928347	     -2.40418989
      1.60016667	     -4.71223092	      0.80912060	     -2.80366647	      0.60016428	      1.07544567	      0.29542547	     28.99365207	     -3.21935843	     -8.19528383	    -51.42967218	      8.34177042	     -3.53747043	      5.86174520	      4.04625699	      3.24769072	      2.36647877	     -8.58481473	     11.82907442	      4.89726904	      0.41914019	     -2.67983102	     -0.23580741	     -2.43655042
      1.60433333	     -4.75052721	      0.83973332	     -2.73550967	      0.60488742	      1.07509087	      0.29537474	     29.33138388	     -3.17976367	     -8.21184375	    -50.46820263	      8.43288286	     -3.80484373	      5.82848322	      3.69394914	      3.28584170	      2.43955929	     -8.34163054	     11.94268119	      4.93250138	      0.43880967	     -2.65415960	     -0.28060192	     -2.47310614
      1.60850000	     -4.79581120	      0.87248284	     -2.67303123	      0.60962072	      1.07467411	      0.29534143	     29.67128781	     -3.14141132	     -8.22861911	    -49.50085734	      8.53156969	     -4.07057474	      5.79799852	      3.34530841	      3.32393248	      2.50566855	     -8.08971533	     12.06621247	      4.97634226	      0.45492162	     -2.63089414	     -0.32985008	     -2.50159301
      1.61266667	     -4.83113218	      0.93320853	     -2.61483745	      0.61434659	      1.07422081	      0.29531912	     29.99788732	     -3.12793607	     -8.21572976	    -48.52751117	      8.63494257	     -4.29758584	      5.77535999	      2.99423673	      3.39290723	      2.57279092	     -7.85691328	     12.19937198	      5.03434325	      0.46655365	     -2.58340089	     -0.40680281	     -2.52528230
      1.61683333	     -4.84888578	      0.97338467	     -2.55162595	      0.61903396	      1.07379448	      0.29532999	     30.28750393	     -3.08479544	     -8.20124644	    -47.51200653	      8.61148549	     -4.69881178	      5.70755469	      2.63142505	      3.43707484	      2.65108525	     -7.63691795	     12.29905175	      5.00851374	      0.49067746	     -2.60585640	     -0.47703228	     -2.56448459
      1.62100000	     -4.88954991	      1.01398865	     -2.48542391	      0.62375798	      1.07328706	      0.29532597	     30.59059268	     -3.04622833	     -8.19066960	    -46.49072728	      8.68170365	     -4.99632616	      5.65876120	      2.29265370	      3.48046400	      2.72949741	     -7.42047754	     12.41285907	      5.03389228	      0.50773695	     -2.59133726	     -0.53325165	     -2.58224094
      1.62516667	     -4.91618849	      1.08930712	     -2.43373935	      0.62846985	      1.07273762	      0.29536120	     30.88684877	     -3.03743636	     -8.15619964	    -45.48078074	      8.69713891	     -5.30213450	      5.58870734	      1.93463029	      3.56130821	      2.80031744	     -7.19288937	     12.53261328	      5.03816159	      0.52877282	     -2.58139009	     -0.64301510	     -2.60586640
      1.62933333	     -4.95232259	      1.18686483	     -2.37994322	      0.63320362	      1.07211813	      0.29539030	     31.19307349	     -3.05996665	     -8.12885172	    -44.48376551	      8.80868689	     -5.46856376	      5.56512370	      1.58752810	      3.66413293	      2.86181127	     -6.96588914	     12.66734696	      5.10539597	      0.53760342	     -2.55161377	     -0.77160129	     -2.62282617
      1.63350000	     -4.97030272	      1.23729342	     -2.31847230	      0.63792290	      1.07155212	      0.29542833	     31.44576503	     -3.02151427	     -8.09374118	    -43.41979531	      8.76866010	     -5.84671575	      5.50098150	      1.22815423	      3.71538278	      2.93276675	     -6.76057922	     12.77309862	      5.09370702	      0.55150672	     -2.57659833	     -0.84615456	     -2.63299124
